<svg width="114" height="35" fill="none" xmlns="http://www.w3.org/2000/svg"><path d="m0 34.552 3.374-25.86h15.47l-.728 5.172H7.85l-.668 5.064h7.723l-.813 4.918H6.504l-.813 5.588h10.162l-.581 5.118H0Zm16.492 0 3.642-25.86h5.203l-3.642 25.86h-5.203Zm24.437-11.016-1.544 11.016h-5.203l1.353-9.568c.08-.54.017-1.029-.191-1.466a2.403 2.403 0 0 0-.92-1.051c-.404-.265-.878-.397-1.421-.397-.544 0-1.058.132-1.544.397a3.487 3.487 0 0 0-1.197 1.051 3.334 3.334 0 0 0-.59 1.466l-1.352 9.568h-5.203l3.625-25.86h5.203l-1.353 9.706a7.81 7.81 0 0 1 2.133-1.155 7.23 7.23 0 0 1 2.41-.414c1.25 0 2.337.305 3.262.914a5.538 5.538 0 0 1 2.098 2.414c.474 1.011.619 2.137.434 3.379Z" fill="#FF6813"/><path d="M47.313 35c-1.596 0-2.995-.408-4.198-1.224-1.19-.816-2.08-1.914-2.67-3.293-.578-1.379-.752-2.902-.52-4.568a10.1 10.1 0 0 1 1.161-3.517 11.242 11.242 0 0 1 2.29-2.896 10.566 10.566 0 0 1 3.035-1.966 8.872 8.872 0 0 1 3.468-.707c1.388 0 2.613.305 3.677.914a7.064 7.064 0 0 1 2.567 2.448c.659 1.023 1.058 2.178 1.197 3.465.15 1.288 0 2.615-.451 3.983H45.3c.104.402.266.77.485 1.103.232.322.532.58.902.776.37.195.821.299 1.353.31.509.012.994-.098 1.457-.328a4.34 4.34 0 0 0 1.266-.93l5.133 1.224a11.23 11.23 0 0 1-3.676 3.758C50.683 34.517 49.047 35 47.313 35Zm-1.665-11.154h6.503a3.175 3.175 0 0 0-.555-1.31 2.888 2.888 0 0 0-1.006-.897 2.703 2.703 0 0 0-1.335-.327c-.486 0-.96.109-1.422.327a4.536 4.536 0 0 0-1.266.897c-.37.379-.677.816-.92 1.31Z" fill="#FF6813"/><path d="M70.927 17.312h5.203l-2.428 17.24h-5.22L68.447 33a6.244 6.244 0 0 1-1.838 1.448c-.694.368-1.474.552-2.341.552-1.295 0-2.475-.241-3.538-.724a7.862 7.862 0 0 1-2.689-2 7.991 7.991 0 0 1-1.578-2.965c-.324-1.126-.393-2.333-.208-3.62a9.747 9.747 0 0 1 1.162-3.448 11.022 11.022 0 0 1 2.29-2.81 10.738 10.738 0 0 1 3.086-1.914 9.456 9.456 0 0 1 3.556-.69c.994 0 1.867.207 2.619.62a7.174 7.174 0 0 1 1.977 1.518l-.018-1.655Zm-6.105 12.723a3.99 3.99 0 0 0 2.03-.552 5.01 5.01 0 0 0 1.63-1.482c.44-.621.711-1.31.815-2.07.104-.758.023-1.447-.243-2.068a3.226 3.226 0 0 0-1.196-1.482c-.532-.368-1.157-.552-1.874-.552a3.99 3.99 0 0 0-2.029.552 4.899 4.899 0 0 0-1.595 1.482 4.725 4.725 0 0 0-.798 2.069c-.104.758-.029 1.448.225 2.069.255.62.648 1.114 1.18 1.482.532.368 1.15.552 1.856.552Z" fill="#FF6813"/><path d="M85.647 22.484H82.7L81 34.552h-5.203l1.7-12.068h-2.254l.728-5.172h2.255l1.31-8.62h5.123l-1.23 8.62h2.948l-.729 5.172Z" fill="#FF6813"/><path d="M91.526 35c-1.596 0-2.995-.408-4.197-1.224-1.191-.816-2.081-1.914-2.671-3.293-.578-1.379-.752-2.902-.52-4.568.173-1.253.56-2.425 1.161-3.517a11.24 11.24 0 0 1 2.29-2.896 10.567 10.567 0 0 1 3.035-1.966 8.873 8.873 0 0 1 3.469-.707c1.387 0 2.613.305 3.676.914a7.063 7.063 0 0 1 2.567 2.448c.659 1.023 1.058 2.178 1.197 3.465.15 1.288 0 2.615-.451 3.983H89.514c.104.402.266.77.486 1.103.23.322.531.58.901.776.37.195.821.299 1.353.31.509.012.995-.098 1.457-.328.474-.23.896-.54 1.266-.93l5.134 1.224a11.234 11.234 0 0 1-3.677 3.758C94.896 34.517 93.26 35 91.526 35ZM89.86 23.846h6.504a3.175 3.175 0 0 0-.555-1.31 2.89 2.89 0 0 0-1.006-.897 2.703 2.703 0 0 0-1.336-.327c-.485 0-.96.109-1.422.327a4.538 4.538 0 0 0-1.266.897 5.08 5.08 0 0 0-.92 1.31Z" fill="#FF6813"/><path d="m100.108 34.552 2.411-17.24h5.203l-.139 1.086a7.814 7.814 0 0 1 2.133-1.155 7.231 7.231 0 0 1 2.411-.414c.624 0 1.249.092 1.873.276l-2.792 5.241a2.69 2.69 0 0 0-1.214-.276c-.544 0-1.058.132-1.544.397a3.49 3.49 0 0 0-1.197 1.051 3.335 3.335 0 0 0-.589 1.466l-1.353 9.568h-5.203ZM46.627 0c2.948 4.432 4.028 8.106 3.242 11.023-.847 3.142-2.77 4.95-4.971 5.403.378-.437.681-1.013.874-1.727.393-1.458-.148-3.296-1.621-5.512-2.391 1.187-3.783 2.51-4.176 3.968-.193.714-.22 1.364-.113 1.93-1.678-1.487-2.434-4.008-1.587-7.15.787-2.917 3.57-5.562 8.352-7.935Z" fill="#FF6813"/></svg>