<svg width="143" height="44" fill="none" xmlns="http://www.w3.org/2000/svg"><path d="m0 43.437 4.233-32.51h19.405l-.913 6.502H9.845l-.837 6.367h9.688l-1.02 6.182H8.158l-1.02 7.024h12.748l-.73 6.434H0Zm20.687 0 4.568-32.51h6.527l-4.569 32.51h-6.526ZM51.34 29.588l-1.936 13.849h-6.527l1.697-12.029c.102-.679.022-1.293-.239-1.842a3.019 3.019 0 0 0-1.153-1.322c-.508-.332-1.102-.499-1.784-.499-.682 0-1.327.166-1.936.499a4.373 4.373 0 0 0-1.501 1.322 4.194 4.194 0 0 0-.74 1.842l-1.697 12.029h-6.526l4.546-32.51h6.527L38.374 23.13a9.796 9.796 0 0 1 2.676-1.452 9.054 9.054 0 0 1 3.024-.52c1.566 0 2.93.383 4.09 1.148a6.955 6.955 0 0 1 2.632 3.035c.595 1.271.776 2.687.544 4.248Z" fill="#fff"/><path d="M59.348 44c-2.001 0-3.756-.513-5.265-1.539-1.493-1.026-2.61-2.405-3.35-4.14-.725-1.733-.943-3.648-.652-5.743a12.713 12.713 0 0 1 1.457-4.42 14.125 14.125 0 0 1 2.872-3.642 13.25 13.25 0 0 1 3.807-2.47 11.108 11.108 0 0 1 4.351-.89c1.74 0 3.278.384 4.612 1.15a8.87 8.87 0 0 1 3.22 3.077c.826 1.286 1.327 2.738 1.5 4.356.19 1.619 0 3.287-.565 5.007h-14.51c.13.505.333.968.609 1.387.29.404.667.73 1.131.975.464.246 1.03.376 1.697.39a3.846 3.846 0 0 0 1.827-.412 5.443 5.443 0 0 0 1.589-1.17l6.439 1.539c-1.146 1.922-2.683 3.496-4.612 4.724C63.575 43.393 61.524 44 59.348 44ZM57.26 29.978h8.158a3.997 3.997 0 0 0-.696-1.648 3.626 3.626 0 0 0-1.262-1.126c-.493-.275-1.052-.412-1.675-.412-.61 0-1.204.137-1.784.412a5.69 5.69 0 0 0-1.588 1.127 6.35 6.35 0 0 0-1.153 1.647Z" fill="#fff"/><path d="M88.97 21.764h6.527L92.45 43.437h-6.548l-.044-1.951a7.836 7.836 0 0 1-2.306 1.82c-.87.463-1.849.694-2.937.694-1.624 0-3.103-.303-4.438-.91a9.863 9.863 0 0 1-3.372-2.514 10.05 10.05 0 0 1-1.98-3.728c-.406-1.416-.493-2.933-.26-4.551a12.27 12.27 0 0 1 1.457-4.335 13.85 13.85 0 0 1 2.872-3.533 13.463 13.463 0 0 1 3.872-2.405 11.836 11.836 0 0 1 4.46-.867c1.247 0 2.342.26 3.285.78a8.996 8.996 0 0 1 2.48 1.907l-.022-2.08Zm-7.658 15.994a5 5 0 0 0 2.546-.693 6.289 6.289 0 0 0 2.045-1.864 5.808 5.808 0 0 0 1.022-2.6c.13-.954.03-1.821-.304-2.602a4.052 4.052 0 0 0-1.501-1.863c-.668-.463-1.45-.694-2.35-.694-.9 0-1.748.231-2.545.694a6.148 6.148 0 0 0-2.002 1.863 5.948 5.948 0 0 0-1 2.601c-.131.954-.037 1.82.282 2.6.32.781.813 1.402 1.48 1.865.667.462 1.443.693 2.327.693Z" fill="#fff"/><path d="M107.435 28.265h-3.698l-2.132 15.172h-6.527l2.132-15.171h-2.828l.914-6.502h2.828l1.644-10.837h6.426l-1.544 10.837h3.699l-.914 6.502Z" fill="#fff"/><path d="M114.809 44c-2.002 0-3.757-.513-5.265-1.539-1.494-1.026-2.611-2.405-3.35-4.14-.726-1.733-.943-3.648-.653-5.743a12.687 12.687 0 0 1 1.458-4.42 14.105 14.105 0 0 1 2.871-3.642 13.257 13.257 0 0 1 3.807-2.47 11.111 11.111 0 0 1 4.351-.89c1.741 0 3.278.384 4.613 1.15a8.869 8.869 0 0 1 3.219 3.077c.827 1.286 1.327 2.738 1.501 4.356.189 1.619 0 3.287-.565 5.007h-14.511c.131.505.334.968.609 1.387.29.404.667.73 1.131.975.465.246 1.03.376 1.697.39a3.846 3.846 0 0 0 1.828-.412 5.45 5.45 0 0 0 1.588-1.17l6.439 1.539c-1.145 1.922-2.683 3.496-4.612 4.724-1.929 1.214-3.981 1.821-6.156 1.821Zm-2.089-14.022h8.158a3.998 3.998 0 0 0-.696-1.648 3.618 3.618 0 0 0-1.262-1.126c-.493-.275-1.051-.412-1.675-.412-.609 0-1.204.137-1.784.412-.58.274-1.109.65-1.588 1.127a6.362 6.362 0 0 0-1.153 1.647Z" fill="#fff"/><path d="m125.574 43.437 3.024-21.673h6.527l-.174 1.365a9.798 9.798 0 0 1 2.675-1.452 9.06 9.06 0 0 1 3.024-.52 8.26 8.26 0 0 1 2.35.347l-3.503 6.588a3.365 3.365 0 0 0-1.522-.347c-.682 0-1.328.166-1.937.499a4.378 4.378 0 0 0-1.501 1.322 4.195 4.195 0 0 0-.739 1.842l-1.697 12.029h-6.527ZM58.489 0c3.697 5.572 5.052 10.19 4.066 13.857-1.063 3.95-3.474 6.223-6.236 6.793.474-.55.855-1.274 1.096-2.171.493-1.834-.184-4.143-2.033-6.93-2.999 1.493-4.745 3.155-5.238 4.989-.241.897-.275 1.714-.142 2.426-2.105-1.87-3.052-5.038-1.99-8.989C48.998 6.31 52.491 2.984 58.49 0Z" fill="#fff"/></svg>